<svg xmlns="http://www.w3.org/2000/svg" viewBox="0 0 64 64">
  <defs>
    <clipPath id="clip">
      <rect width="64" height="64" rx="8"/>
    </clipPath>
  </defs>

  <g clip-path="url(#clip)">
    <!-- flag base -->
    <rect width="64" height="64" fill="#C4272F"/>
    <rect x="21.33" y="0" width="21.34" height="64" fill="#015197"/>
    <rect x="42.67" y="0" width="21.33" height="64" fill="#C4272F"/>

    <!-- soyombo simplified -->
    <g fill="#F9CF02">
      <!-- flame -->
      <path d="M10.5 8.5c1.7 1.4 2.5 2.8 2.5 4.3 0-1.1.9-2.1 2.1-2.8-.2 2.5 1.3 3.5 1.3 5.8 0 2.7-2.2 4.8-4.9 4.8-2.7 0-4.9-2.1-4.9-4.8 0-1.9 1-3.3 2.1-4.7.6-.8 1.3-1.6 1.8-2.6Z"/>
      <circle cx="11.5" cy="23.5" r="2.2"/>
      <circle cx="11.5" cy="29.5" r="2.2"/>

      <!-- vertical bars -->
      <rect x="8.5" y="34" width="6" height="2.8" rx="1.2"/>
      <rect x="8.5" y="39" width="6" height="10" rx="1.2"/>

      <!-- yin-yang style -->
      <circle cx="11.5" cy="53" r="4.2"/>
      <circle cx="11.5" cy="51.3" r="1.2" fill="#C4272F"/>
      <circle cx="11.5" cy="54.7" r="1.2" fill="#015197"/>
    </g>
  </g>
</svg>