<svg width="1200" height="700" viewBox="0 0 1200 700" fill="none" xmlns="http://www.w3.org/2000/svg">
  <rect width="1200" height="700" rx="36" fill="#0F172A"/>
  <circle cx="1020" cy="110" r="150" fill="#EC4899" fill-opacity="0.2"/>
  <circle cx="170" cy="590" r="170" fill="#22D3EE" fill-opacity="0.18"/>
  <rect x="90" y="110" width="1020" height="480" rx="28" fill="#111827" stroke="#334155"/>
  <rect x="130" y="145" width="940" height="52" rx="18" fill="#1E293B"/>
  <rect x="150" y="162" width="180" height="18" rx="9" fill="#E2E8F0"/>
  <rect x="130" y="235" width="290" height="300" rx="26" fill="url(#paint0_linear)"/>
  <rect x="455" y="235" width="290" height="300" rx="26" fill="#1E293B"/>
  <rect x="780" y="235" width="290" height="300" rx="26" fill="#1E293B"/>
  <rect x="485" y="270" width="230" height="20" rx="10" fill="#CBD5E1"/>
  <rect x="485" y="310" width="180" height="16" rx="8" fill="#94A3B8"/>
  <rect x="810" y="270" width="220" height="20" rx="10" fill="#CBD5E1"/>
  <rect x="810" y="310" width="150" height="16" rx="8" fill="#94A3B8"/>
  <defs>
    <linearGradient id="paint0_linear" x1="130" y1="235" x2="420" y2="535" gradientUnits="userSpaceOnUse">
      <stop stop-color="#A855F7"/>
      <stop offset="1" stop-color="#22D3EE"/>
    </linearGradient>
  </defs>
</svg>